<svg width="80" height="80" viewBox="0 0 80 80" fill="none" xmlns="http://www.w3.org/2000/svg">
<path d="M24.7383 46.837C25.5464 48.6347 26.7033 50.2864 28.2089 51.792C29.7145 53.2976 31.3662 54.4545 33.1639 55.2626C33.304 55.3256 33.445 55.3864 33.5869 55.4452M24.7383 46.837L55.2628 46.837C54.4547 48.6347 53.2979 50.2864 51.7922 51.792C50.2866 53.2976 48.6349 54.4545 46.8372 55.2626C46.6971 55.3256 46.5561 55.3864 46.4143 55.4452M24.7383 46.837L39.5593 40.4416M24.7383 46.837L39.5593 40.4416M33.5869 55.4452C35.5542 56.2597 37.6921 56.667 40.0006 56.667C42.309 56.667 44.4469 56.2597 46.4143 55.4452M33.5869 55.4452L40.0006 40.5817M33.5869 55.4452L40.0006 40.5817M46.4143 55.4452L40.0006 40.5817M46.4143 55.4452L40.0006 40.5817M70.7089 27.0003C72.4589 31.0559 73.3339 35.3892 73.3339 40.0003C73.3339 44.6114 72.4589 48.9448 70.7089 53.0003C70.648 53.1416 70.5862 53.2822 70.5238 53.4222C68.7927 57.301 66.4794 60.6882 63.5839 63.5837C60.6884 66.4792 57.3012 68.7925 53.4224 70.5235C53.2824 70.586 53.1418 70.6477 53.0006 70.7087C48.945 72.4587 44.6117 73.3337 40.0006 73.3337C35.3895 73.3337 31.0561 72.4587 27.0006 70.7087C26.8593 70.6477 26.7187 70.586 26.5787 70.5235C22.6999 68.7925 19.3127 66.4792 16.4172 63.5837C13.5217 60.6882 11.2085 57.301 9.47738 53.4222L15.4893 50.828C16.7771 53.7787 18.642 56.4751 21.0839 58.917C23.5258 61.3589 26.2222 63.2238 29.1729 64.5116L29.5968 64.6919C32.7745 66.0086 36.2424 66.667 40.0006 66.667C43.7587 66.667 47.2266 66.0086 50.4043 64.6919C50.5462 64.6331 50.6875 64.573 50.8282 64.5116C53.779 63.2238 56.4753 61.3589 58.9172 58.917C61.3592 56.4751 63.224 53.7787 64.5118 50.828C64.5733 50.6872 64.6334 50.5459 64.6922 50.4041C66.0089 47.2264 66.6672 43.7585 66.6672 40.0003C66.6672 36.2422 66.0089 32.7743 64.6922 29.5966M70.7089 27.0003C70.648 26.8591 70.5863 26.7185 70.5238 26.5785C68.7927 22.6997 66.4794 19.3125 63.5839 16.417C60.6884 13.5215 57.3013 11.2082 53.4225 9.47714L50.8283 15.4891C53.779 16.7769 56.4753 18.6417 58.9172 21.0837C61.3592 23.5256 63.224 26.2219 64.5118 29.1727C64.5733 29.3134 64.6334 29.4547 64.6922 29.5966M70.7089 27.0003L64.6922 29.5966M70.7089 27.0003L64.6922 29.5966M55.4454 33.5866C56.26 35.554 56.6672 37.6919 56.6672 40.0003C56.6672 42.3088 56.26 44.4467 55.4454 46.414L55.2628 33.1637C55.3258 33.3038 55.3867 33.4448 55.4454 33.5866ZM55.4454 33.5866L40.582 40.0003L55.4454 33.5866ZM39.5593 40.4416L39.6978 40.1205L24.5557 46.414M39.5593 40.4416L24.7383 46.837C24.6753 46.6969 24.6145 46.5559 24.5557 46.414M24.5557 46.414C23.7412 44.4467 23.3339 42.3088 23.3339 40.0003C23.3339 37.6919 23.7412 35.554 24.5557 33.5866C24.6145 33.4448 24.6753 33.3038 24.7383 33.1637L39.5593 39.559M24.5557 46.414L40.4418 39.5591M40.0006 40.5817L40.1208 40.3031L40.0006 40.5817ZM40.4418 39.5591L46.8372 24.7381C46.6971 24.6751 46.5561 24.6142 46.4143 24.5555C44.4469 23.7409 42.309 23.3337 40.0006 23.3337C37.6921 23.3337 35.5542 23.7409 33.5869 24.5555C33.445 24.6142 33.304 24.6751 33.1639 24.7381L39.5593 39.559M40.4418 39.5591L46.8372 24.7381L40.4418 39.5591ZM40.4418 39.5591L40.1208 39.6976L40.4418 39.5591ZM39.5593 39.559L33.1639 24.7381C31.3662 25.5462 29.7145 26.703 28.2089 28.2087C26.7033 29.7143 25.5464 31.3659 24.7383 33.1637L39.5593 39.559ZM40.1758 39.8251L40.3033 39.8801L40.1758 39.8251ZM40.1758 39.8251L40.0006 39.7495L40.1758 39.8251ZM26.5787 9.47712C26.7187 9.41465 26.8593 9.35294 27.0006 9.29199C31.0561 7.54199 35.3895 6.66699 40.0006 6.66699C44.6117 6.66699 48.945 7.54199 53.0006 9.29199C53.1418 9.35294 53.2824 9.41465 53.4224 9.47712L50.8282 15.4891C50.6875 15.4276 50.5462 15.3675 50.4043 15.3087C47.2266 13.992 43.7587 13.3337 40.0006 13.3337C36.2424 13.3337 32.7745 13.992 29.5968 15.3087C29.455 15.3675 29.3137 15.4276 29.1729 15.4891L26.5787 9.47712ZM9.29224 27.0003C9.35319 26.8591 9.4149 26.7185 9.47737 26.5785L15.4893 29.1727C15.4279 29.3134 15.3678 29.4547 15.309 29.5966C13.9923 32.7743 13.3339 36.2422 13.3339 40.0003C13.3339 43.7585 13.9923 47.2264 15.309 50.4041C15.3678 50.5459 15.4279 50.6872 15.4893 50.828L9.47736 53.4222C9.4149 53.2822 9.35319 53.1416 9.29224 53.0003C7.54224 48.9448 6.66724 44.6114 6.66724 40.0003C6.66724 35.3892 7.54224 31.0559 9.29224 27.0003ZM15.4893 29.1727L9.47738 26.5785C11.2084 22.6997 13.5217 19.3125 16.4172 16.417C19.3127 13.5215 22.6999 11.2082 26.5787 9.47714L29.1729 15.4891C26.2222 16.7769 23.5258 18.6417 21.0839 21.0837C18.642 23.5256 16.7771 26.2219 15.4893 29.1727Z" fill="#FA8B02" stroke="#FA8B02" stroke-width="216.667"/>
</svg>
